<svg xmlns="http://www.w3.org/2000/svg" xmlns:xlink="http://www.w3.org/1999/xlink" width="146.701" height="55.282" viewBox="0 0 146.701 55.282"><defs><clipPath id="a"><rect width="146.701" height="55.282" fill="none"/></clipPath></defs><g clip-path="url(#a)"><path d="M386.811,194.893h1.565a2.123,2.123,0,0,1,1.477.48,1.707,1.707,0,0,1,.531,1.335,1.78,1.78,0,0,1-.517,1.307,1.745,1.745,0,0,1-1.291.521,2.546,2.546,0,0,1-.4-.03,1.747,1.747,0,0,1-.35-.09v1.138h.517v.283h-1.534v-.283h.467v-4.37h-.467Zm1.016.319v2.179a1.079,1.079,0,0,0,.162.673.656.656,0,0,0,.538.2,1.125,1.125,0,0,0,.907-.422,1.639,1.639,0,0,0,.352-1.088,1.517,1.517,0,0,0-.415-1.136,1.6,1.6,0,0,0-1.172-.406Z" transform="translate(-307.329 -154.545)" fill="#a0bd31"/><path d="M411.759,201.738l.2.1-.433.706a1.172,1.172,0,0,0-.267-.211.535.535,0,0,0-.254-.065.4.4,0,0,0-.344.168.8.8,0,0,0-.123.477V205h.454v.262h-1.354V205h.391v-2.35a.5.5,0,0,0-.032-.22.263.263,0,0,0-.12-.1l-.165.209-.211-.145.461-.659a1.487,1.487,0,0,1,.361.259.746.746,0,0,1,.174.3,1.274,1.274,0,0,1,.269-.429.462.462,0,0,1,.322-.128.709.709,0,0,1,.243.048,1.453,1.453,0,0,1,.281.147Z" transform="translate(-325.354 -159.973)" fill="#a0bd31"/><path d="M427.088,201.738a1.746,1.746,0,0,1,1.289.512,1.908,1.908,0,0,1,0,2.6,1.873,1.873,0,0,1-2.577,0,1.908,1.908,0,0,1,0-2.6,1.744,1.744,0,0,1,1.289-.514m-.035.252a1.074,1.074,0,0,0-.87.39,1.584,1.584,0,0,0-.325,1.049,1.916,1.916,0,0,0,.369,1.2,1.114,1.114,0,0,0,.918.484,1.049,1.049,0,0,0,.855-.39,1.6,1.6,0,0,0,.32-1.049,1.92,1.92,0,0,0-.369-1.2,1.1,1.1,0,0,0-.9-.486" transform="translate(-337.899 -159.973)" fill="#a0bd31"/><path d="M450.364,194.628l-.225.3a.66.66,0,0,0-.211-.14.617.617,0,0,0-.236-.048.59.59,0,0,0-.429.164.551.551,0,0,0-.169.414.732.732,0,0,0,.257.56.894.894,0,0,0,.623.234h.215l-.1.334H449.4v2.771h.535v.262H448.5v-.262h.391v-2.771h-.506l.1-.334h.432a.987.987,0,0,1-.2-.308.959.959,0,0,1-.065-.354.922.922,0,0,1,.355-.687,1.149,1.149,0,0,1,.785-.319.934.934,0,0,1,.293.046,1,1,0,0,1,.269.134" transform="translate(-356.253 -154.191)" fill="#a0bd31"/><path d="M464.649,203.139l-2.177.6a1.473,1.473,0,0,0,.434.84,1.188,1.188,0,0,0,.828.3,1.485,1.485,0,0,0,.579-.117,1.726,1.726,0,0,0,.522-.347l.165.177a2.22,2.22,0,0,1-.693.579,1.756,1.756,0,0,1-.82.2,1.414,1.414,0,0,1-1.118-.5,2.068,2.068,0,0,1,.046-2.6,1.543,1.543,0,0,1,1.189-.53,1.316,1.316,0,0,1,.582.134,1.385,1.385,0,0,1,.477.386,1.764,1.764,0,0,1,.246.413.976.976,0,0,1,.1.342c0,.033-.058.06-.172.081q-.12.025-.186.043m-.165-.22a1.617,1.617,0,0,0-.4-.675.827.827,0,0,0-.58-.232.981.981,0,0,0-.785.356,1.388,1.388,0,0,0-.3.93c0,.022,0,.048,0,.08s.007.07.014.115Z" transform="translate(-367.016 -159.974)" fill="#a0bd31"/><path d="M483.989,202.043l-.239.368a2.158,2.158,0,0,0-.447-.3.925.925,0,0,0-.4-.1.535.535,0,0,0-.371.131.431.431,0,0,0-.146.337q0,.315.647.6l.267.12a1.685,1.685,0,0,1,.61.436.918.918,0,0,1,.174.575,1.09,1.09,0,0,1-.366.8,1.219,1.219,0,0,1-.879.354,1.453,1.453,0,0,1-.617-.138,1.654,1.654,0,0,1-.529-.394l.362-.422a2.881,2.881,0,0,0,.564.463.956.956,0,0,0,.48.147.562.562,0,0,0,.419-.169.634.634,0,0,0,.026-.822,1.909,1.909,0,0,0-.59-.373l-.017-.007q-.936-.439-.935-1.007A.829.829,0,0,1,482.3,202a1.062,1.062,0,0,1,.731-.259,1.584,1.584,0,0,1,.482.075,2.007,2.007,0,0,1,.478.23" transform="translate(-382.717 -159.973)" fill="#a0bd31"/><path d="M500.361,202.043l-.239.368a2.157,2.157,0,0,0-.447-.3.925.925,0,0,0-.4-.1.535.535,0,0,0-.371.131.431.431,0,0,0-.146.337q0,.315.647.6l.267.12a1.686,1.686,0,0,1,.61.436.918.918,0,0,1,.174.575,1.09,1.09,0,0,1-.366.8,1.219,1.219,0,0,1-.879.354,1.454,1.454,0,0,1-.617-.138,1.654,1.654,0,0,1-.529-.394l.362-.422a2.881,2.881,0,0,0,.564.463.956.956,0,0,0,.48.147.562.562,0,0,0,.419-.169.634.634,0,0,0,.026-.822,1.909,1.909,0,0,0-.59-.373l-.017-.007q-.936-.439-.935-1.007a.829.829,0,0,1,.292-.648,1.062,1.062,0,0,1,.731-.259,1.584,1.584,0,0,1,.482.075,2.007,2.007,0,0,1,.478.23" transform="translate(-395.725 -159.973)" fill="#a0bd31"/><path d="M516.639,197.368h.028c0,.017,0,.045-.007.085-.014.158-.021.269-.021.333v2.846h.391v.263h-1.291v-.263h.39v-2.8l-.39.124v-.269Zm-.288-1.141a.362.362,0,0,1,.362.365.338.338,0,0,1-.106.252.354.354,0,0,1-.257.1.333.333,0,0,1-.246-.108.343.343,0,0,1-.106-.246.358.358,0,0,1,.1-.257.332.332,0,0,1,.248-.108" transform="translate(-409.765 -155.603)" fill="#a0bd31"/><path d="M529.888,201.738a1.746,1.746,0,0,1,1.289.512,1.908,1.908,0,0,1,0,2.6,1.873,1.873,0,0,1-2.577,0,1.908,1.908,0,0,1,0-2.6,1.744,1.744,0,0,1,1.289-.514m-.035.252a1.074,1.074,0,0,0-.87.39,1.584,1.584,0,0,0-.325,1.049,1.916,1.916,0,0,0,.369,1.2,1.114,1.114,0,0,0,.918.484,1.049,1.049,0,0,0,.855-.39,1.6,1.6,0,0,0,.32-1.049,1.92,1.92,0,0,0-.369-1.2,1.1,1.1,0,0,0-.9-.486" transform="translate(-419.576 -159.973)" fill="#a0bd31"/><path d="M554.885,202.759V205h.39v.262h-1.291V205h.391v-2.237a.587.587,0,0,0-.169-.453.7.7,0,0,0-.489-.156,1.283,1.283,0,0,0-.534.129,2.047,2.047,0,0,0-.531.359V205h.39v.262h-1.291V205h.39v-2.8l-.39.124v-.269l.844-.284h.043l.014.553a3.356,3.356,0,0,1,.675-.443,1.368,1.368,0,0,1,.574-.145.953.953,0,0,1,.714.278,1.02,1.02,0,0,1,.271.742" transform="translate(-438.378 -159.973)" fill="#a0bd31"/><path d="M575.4,201.67l.229.049-.057.3a1.437,1.437,0,0,1,.943-.333.964.964,0,0,1,.788.3,1.5,1.5,0,0,1,.25.959v2h.387v.263h-.848l-.053-.45a1.492,1.492,0,0,1-.5.415,1.352,1.352,0,0,1-.608.138,1.033,1.033,0,0,1-.781-.339,1.172,1.172,0,0,1-.32-.838,1,1,0,0,1,.438-.863,2.064,2.064,0,0,1,1.219-.313c.075,0,.158,0,.25.009s.193.014.3.027v-.3a.783.783,0,0,0-.17-.537.6.6,0,0,0-.47-.193,1,1,0,0,0-.595.181,1.14,1.14,0,0,0-.39.528l-.239-.064Zm1.639,1.581q-.2-.021-.3-.028c-.07,0-.13-.007-.179-.007a1.369,1.369,0,0,0-.848.227.772.772,0,0,0-.3.652.876.876,0,0,0,.208.61.7.7,0,0,0,.548.23.8.8,0,0,0,.63-.273,1.073,1.073,0,0,0,.239-.733Z" transform="translate(-456.717 -159.919)" fill="#a0bd31"/><path d="M597.345,194.583v.27l-.345.131v4.344h.383v.262H596.1v-.262h.384v-4.157l-.384.131v-.27Z" transform="translate(-473.613 -154.299)" fill="#a0bd31"/><path d="M620.577,194.892h1.484v.29h-.468v1.51h2.076v-1.51H623.2v-.29h1.484v.29h-.471v4.37h.471v.283H623.2v-.283h.468v-2.541h-2.076v2.541h.468v.283h-1.484v-.283h.467v-4.37h-.467Z" transform="translate(-493.061 -154.544)" fill="#a0bd31"/><path d="M647.241,201.67l.229.049-.057.3a1.437,1.437,0,0,1,.943-.333.964.964,0,0,1,.788.3,1.5,1.5,0,0,1,.25.959v2h.387v.263h-.848l-.053-.45a1.5,1.5,0,0,1-.5.415,1.351,1.351,0,0,1-.608.138,1.034,1.034,0,0,1-.781-.339,1.172,1.172,0,0,1-.32-.838,1,1,0,0,1,.438-.863,2.065,2.065,0,0,1,1.219-.313c.075,0,.158,0,.25.009s.193.014.3.027v-.3a.783.783,0,0,0-.171-.537.594.594,0,0,0-.469-.193,1,1,0,0,0-.595.181,1.14,1.14,0,0,0-.39.528l-.239-.064Zm1.639,1.581q-.2-.021-.3-.028c-.07,0-.13-.007-.179-.007a1.369,1.369,0,0,0-.848.227.772.772,0,0,0-.3.652.876.876,0,0,0,.208.61.7.7,0,0,0,.548.23.8.8,0,0,0,.63-.273,1.073,1.073,0,0,0,.239-.733Z" transform="translate(-513.793 -159.919)" fill="#a0bd31"/><path d="M668.974,197.368H669c0,.017,0,.045-.007.085-.014.158-.021.269-.021.333v2.846h.391v.263h-1.291v-.263h.391v-2.8l-.391.124v-.269Zm-.288-1.141a.363.363,0,0,1,.362.365.337.337,0,0,1-.106.252.354.354,0,0,1-.257.1.332.332,0,0,1-.246-.108.342.342,0,0,1-.106-.246.358.358,0,0,1,.1-.257.332.332,0,0,1,.248-.108" transform="translate(-530.799 -155.603)" fill="#a0bd31"/><path d="M682.326,201.738l.2.1-.432.706a1.175,1.175,0,0,0-.267-.211.535.535,0,0,0-.254-.065.4.4,0,0,0-.344.168.8.8,0,0,0-.123.477V205h.454v.262H680.2V205h.391v-2.35a.505.505,0,0,0-.032-.22.264.264,0,0,0-.12-.1l-.165.209-.211-.145.461-.659a1.486,1.486,0,0,1,.361.259.749.749,0,0,1,.174.3,1.274,1.274,0,0,1,.269-.429.462.462,0,0,1,.322-.128.709.709,0,0,1,.243.048,1.453,1.453,0,0,1,.281.147Z" transform="translate(-540.325 -159.973)" fill="#a0bd31"/><path d="M324.551,8.623c-29.663,10.119-79.742-5.732-88.145,11.729-1.31,2.738-1.492,5.936-1.3,3.128C236.558,5.11,271.2,7.283,291.265,8.8c12.54.856,29.879.591,41.14-3.94,3.7-1.469-3.308,2.243-7.853,3.766" transform="translate(-186.745 -3.584)" fill="#a0bd31"/><path d="M235.162,12.934c.317-5.9,9.633-14.24,26.986-12.761,7.12.634-16.429.387-25.446,10.548-1.714,2.342-1.629,3.122-1.539,2.213" transform="translate(-186.809 0)" fill="#a0bd31"/><path d="M244.526,104.059l-11.131,3.08a7.528,7.528,0,0,0,2.221,4.294,6.072,6.072,0,0,0,4.235,1.522,7.593,7.593,0,0,0,2.958-.6,8.816,8.816,0,0,0,2.67-1.775l.845.906a11.344,11.344,0,0,1-3.542,2.962,8.978,8.978,0,0,1-4.19,1.006,7.234,7.234,0,0,1-5.718-2.564,10.575,10.575,0,0,1,.234-13.28,7.893,7.893,0,0,1,6.078-2.709,6.707,6.707,0,0,1,2.976.689,7.037,7.037,0,0,1,2.437,1.975,9.129,9.129,0,0,1,1.259,2.111,5.009,5.009,0,0,1,.5,1.748q0,.254-.881.417-.612.127-.953.218m-.845-1.123a8.264,8.264,0,0,0-2.05-3.451,4.226,4.226,0,0,0-2.967-1.187,5.015,5.015,0,0,0-4.01,1.821,7.093,7.093,0,0,0-1.546,4.756q0,.163.018.408t.072.589Z" transform="translate(-183.251 -76.841)" fill="#005829"/><path d="M327.5,60.323V61.7l-1.762.67V84.582h1.96v1.341h-6.563V84.582h1.96V63.331l-1.96.67V62.624Z" transform="translate(-255.145 -47.835)" fill="#005829"/><path d="M369.988,96.553l1.169.254-.287,1.522a7.361,7.361,0,0,1,4.819-1.7,4.922,4.922,0,0,1,4.028,1.549,7.657,7.657,0,0,1,1.277,4.9v10.236h1.978v1.341h-4.334l-.27-2.3a7.658,7.658,0,0,1-2.554,2.12,6.89,6.89,0,0,1-3.111.707,5.285,5.285,0,0,1-3.992-1.731,5.994,5.994,0,0,1-1.636-4.285,5.133,5.133,0,0,1,2.238-4.412,10.551,10.551,0,0,1,6.231-1.6q.575,0,1.277.045t1.546.136v-1.522a4.007,4.007,0,0,0-.872-2.745,3.039,3.039,0,0,0-2.4-.988,5.1,5.1,0,0,0-3.039.924,5.843,5.843,0,0,0-2,2.7l-1.223-.326Zm8.379,8.08q-1.008-.109-1.546-.145t-.917-.037a7,7,0,0,0-4.334,1.16,3.95,3.95,0,0,0-1.511,3.333,4.479,4.479,0,0,0,1.061,3.117,3.593,3.593,0,0,0,2.805,1.177,4.073,4.073,0,0,0,3.219-1.395,5.486,5.486,0,0,0,1.223-3.75Z" transform="translate(-291.649 -76.564)" fill="#005829"/><path d="M464.328,97.084h.216l.071,2.826a17.366,17.366,0,0,1,3.444-2.265,6.832,6.832,0,0,1,2.886-.743,4.721,4.721,0,0,1,2.725.842,4.5,4.5,0,0,1,1.735,2.237,17.458,17.458,0,0,1,3.48-2.328,6.859,6.859,0,0,1,2.94-.752,4.863,4.863,0,0,1,3.65,1.422,5.209,5.209,0,0,1,1.385,3.8v11.468h2v1.341h-6.6v-1.341h2V102.157a3.076,3.076,0,0,0-.827-2.319,3.34,3.34,0,0,0-2.41-.8,6.071,6.071,0,0,0-2.608.661,10.813,10.813,0,0,0-2.661,1.839v12.048h1.978v1.341h-6.581v-1.341h1.978V102.157a3.075,3.075,0,0,0-.827-2.319,3.34,3.34,0,0,0-2.41-.8,6.094,6.094,0,0,0-2.6.661,10.75,10.75,0,0,0-2.671,1.839v12.048h2v1.341h-6.6v-1.341h2V99.276l-2,.634V98.534Z" transform="translate(-365.489 -76.841)" fill="#005829"/><path d="M628.265,104.059l-11.131,3.08a7.526,7.526,0,0,0,2.221,4.294,6.072,6.072,0,0,0,4.234,1.522,7.6,7.6,0,0,0,2.958-.6,8.816,8.816,0,0,0,2.67-1.775l.845.906a11.336,11.336,0,0,1-3.542,2.962,8.978,8.978,0,0,1-4.19,1.006,7.236,7.236,0,0,1-5.718-2.564,10.576,10.576,0,0,1,.234-13.28,7.892,7.892,0,0,1,6.078-2.709,6.707,6.707,0,0,1,2.976.689,7.036,7.036,0,0,1,2.437,1.975,9.147,9.147,0,0,1,1.259,2.111,5.01,5.01,0,0,1,.5,1.748q0,.254-.881.417-.611.127-.953.218m-.845-1.123a8.264,8.264,0,0,0-2.05-3.451A4.224,4.224,0,0,0,622.4,98.3a5.016,5.016,0,0,0-4.01,1.821,7.094,7.094,0,0,0-1.546,4.756c0,.109.006.245.018.408s.036.359.071.589Z" transform="translate(-488.14 -76.841)" fill="#005829"/><path d="M78.159,60.606C75.7,58.3,66.422,52.872,51.332,52.872a69.164,69.164,0,0,0-9.065.584,18.157,18.157,0,0,0,2.265-8.524c0-6.269-4.471-11.412-13.022-11.412l-.175,0c2.122-3.036,3.64-6.376,3.64-9.538,0-5.105-2.944-7.827-7.527-7.827-4.492,0-9.6,2.256-13.536,4.917a38.166,38.166,0,0,0-6.8,5.967C4.916,29.411,0,35.878,0,41.3c0,.985.085,3.625,2.975,3.625,2.352,0,6.31-2,9.832-5.167a27.124,27.124,0,0,0,3.244-3.7c1.5-1.951,2.6-3.67,3.046-4.382-.257.8-3.29,9.828-5.922,16.987-1.572,4.276-3.144,7.871-3.5,8.693a64.579,64.579,0,0,1-3.528,6.423,28.993,28.993,0,0,1-1.828,2.641,3.494,3.494,0,0,1-.977.828c-.342.188-.637.261-.637.571,0,.366.983.341,1.983-.086a6.385,6.385,0,0,0,1.7-1.2,28.622,28.622,0,0,0,4.066-5.61,95.037,95.037,0,0,0,5.03-11.006c.466-1.215,1.276-3.72,2.151-6.539a1.059,1.059,0,0,0,1.13.891c1.781,0,7.531-4.156,11.676-9.538.274-.017.551-.027.832-.027a9.712,9.712,0,0,1,8.687,4.577,11.61,11.61,0,0,1,1.5,5.738,18.138,18.138,0,0,1-2.318,8.923A50.072,50.072,0,0,0,24.468,58.9c-5.359,2.9-8.216,6.231-8.216,7.583s1.23,1.614,2.832,1.614c6.725,0,15.814-4.787,20.474-10.568a26.742,26.742,0,0,0,1.974-2.786,58.986,58.986,0,0,1,9.353-.78c18.742,0,25.579,6.832,26.51,7.358s3.223,1.6.764-.713m-56.8-29.818c.328-1.305,1.115-4.094,1.612-6.224a18.688,18.688,0,0,0,.471-2.731.744.744,0,0,0-.171-.589c-.467-.409-1.46-.545-1.655.345-.25,1.375-2.723,6.448-5.15,10.392a39.224,39.224,0,0,1-3.709,4.959c-1.783,2.113-6.306,6.353-8.988,6.353-1.027,0-1.612-.6-1.612-1.984,0-2.147,1.2-4.564,2.682-7.187a39.619,39.619,0,0,1,9.031-10.809c4.1-3.362,8.856-5.592,13.2-5.592,4.109,0,5.328,2.776,5.328,5.86,0,3.26-1.936,7.033-4.2,10.248a16.523,16.523,0,0,0-8.079,4.177,8.107,8.107,0,0,0-1.291,1.516c1.193-3.956,2.275-7.689,2.538-8.735M26.381,36.2a43.856,43.856,0,0,1-4.75,4.93c-1.785,1.59-3.029,2.04-3.029,1.3,0-.941,3.18-5.342,8.429-7.047q-.325.418-.651.816M19.941,66.893c-.6,0-1.49-.094-1.49-.807,0-1.032,1.157-2.1,2.925-3.435a41.98,41.98,0,0,1,12.37-6.1c1.458-.453,2.979-.85,4.532-1.191-5.269,7.883-15.51,11.533-18.336,11.533" transform="translate(0 -12.813)" fill="#005829"/></g></svg>